# Blender v2.80 (sub 75) OBJ File: ''
# www.blender.org
o Cube
v 1.000000 -1.000000 -1.000000
v -0.010158 1.000621 0.031746
v 1.000000 -1.000000 1.000000
v -1.000000 -1.000000 -1.000000
v -1.000000 -1.000000 1.000000
vt 0.666667 0.750625
vt 0.333333 1.000000
vt 0.333750 0.751563
vt 0.666250 0.999688
vt 0.498333 0.501250
vn 0.0000 -1.0000 0.0000
vn 0.0000 0.4356 0.9001
vn -0.8963 0.4435 0.0000
vn 0.0000 0.4584 -0.8888
vn 0.8927 0.4507 0.0000
s off
f 1/1/1 5/2/1 4/3/1
f 3/4/2 2/5/2 5/2/2
f 5/2/3 2/5/3 4/3/3
f 4/3/4 2/5/4 1/1/4
f 2/5/5 3/4/5 1/1/5
f 1/1/1 3/4/1 5/2/1
